<?xml version="1.0" encoding="UTF-8" standalone="no"?><!DOCTYPE svg PUBLIC "-//W3C//DTD SVG 1.1//EN" "http://www.w3.org/Graphics/SVG/1.1/DTD/svg11.dtd"><svg width="100%" height="100%" viewBox="0 0 1323 282" version="1.1" xmlns="http://www.w3.org/2000/svg" xmlns:xlink="http://www.w3.org/1999/xlink" xml:space="preserve" xmlns:serif="http://www.serif.com/" style="fill-rule:evenodd;clip-rule:evenodd;stroke-linejoin:round;stroke-miterlimit:2;"><g><g transform="matrix(288,0,0,288,1330.24,243.771)"></g><text x="322.238px" y="243.771px" style="font-family:'Arial-Black', 'Arial', sans-serif;font-weight:900;font-size:288px;fill:#fff;">MFRIT</text><g><rect x="0" y="0" width="281.385" height="281.385" style="fill:#d10202;"/><path d="M281.385,0l0,281.385l-281.385,0l0,-281.385l281.385,0Zm-20,20l-241.385,-0l-0,241.385c-0,0 241.385,0 241.385,0l0,-241.385Z" style="fill:#d10202;"/><rect x="31.976" y="31.986" width="217.434" height="217.413" style="fill:#d10202;"/><path d="M249.41,31.986l-0,217.413l-217.434,-0l-0,-217.413l217.434,0Zm-30,30l-157.434,0l-0,157.413l157.434,-0l-0,-157.413Z" style="fill:#fff;"/></g></g></svg>